<svg width="36" height="36" viewBox="0 0 36 36" fill="none" xmlns="http://www.w3.org/2000/svg">
<circle cx="18" cy="18" r="18" fill="#F9CB81"/>
<path d="M26.9859 22.7973C26.9859 23.2204 26.8727 23.6133 26.7031 23.9457L21.033 17.1612L26.6465 11.9179C26.8586 12.2957 27 12.7188 27 13.1872V22.7973H26.9859ZM17.9929 18.4002L25.7981 11.102C25.4729 10.9207 25.1194 10.7998 24.7235 10.7998H11.2482C10.8523 10.7998 10.4988 10.9207 10.1736 11.102L17.9929 18.4002ZM20.1705 17.962L18.3606 19.6544C18.2474 19.7602 18.1202 19.8055 17.9929 19.8055C17.8657 19.8055 17.7243 19.7602 17.6253 19.6544L15.8154 17.962L10.0746 24.8372C10.414 25.0638 10.824 25.1998 11.2624 25.1998H24.7376C25.176 25.1998 25.5719 25.0638 25.9254 24.8372L20.1705 17.962ZM9.3535 11.9179C9.1414 12.2957 9 12.7188 9 13.1872V22.7822C9 23.2053 9.11312 23.5981 9.2828 23.9306L14.9529 17.1461L9.3535 11.9179Z" fill="white"/>
</svg>
