<svg width="33" height="36" viewBox="0 0 33 36" fill="none" xmlns="http://www.w3.org/2000/svg">
<path d="M26.0032 13.8848C26.0032 14.3745 26.0032 14.8642 26.0032 15.3539C27.6743 15.3539 29.3454 15.3539 31.0166 15.3539C31.0166 14.8642 31.0166 14.3745 31.0166 13.8848C29.3454 13.8848 27.6743 13.8848 26.0032 13.8848Z" fill="#333534"/>
<path d="M26.5854 17.3125C26.3781 17.7496 26.1707 18.1867 25.9634 18.6238C27.4553 19.4278 28.9424 20.2419 30.4343 21.046C30.6416 20.6089 30.849 20.1718 31.0563 19.7347C29.5644 18.9307 28.0773 18.1165 26.5854 17.3125Z" fill="#333534"/>
<path d="M30.4343 8.19434C28.9424 8.99836 27.4553 9.81251 25.9634 10.6165C26.1707 11.0536 26.3781 11.4907 26.5854 11.9278C28.0746 11.117 29.5671 10.3133 31.0563 9.50256C30.849 9.06649 30.6416 8.63041 30.4343 8.19434Z" fill="#333534"/>
<path d="M18.9243 7.50433C14.8534 8.91413 10.7816 10.3208 6.71045 11.7299C6.63302 11.7165 6.56273 11.6811 6.48218 11.6811H3.46631C2.63529 11.6811 1.9436 12.4199 1.9436 13.3076V19.0621C1.9436 19.9498 2.63529 20.6887 3.46631 20.6887H3.95239L7.2395 30.5253H12.0923L9.16235 21.1849C12.4155 21.9056 15.6686 22.6265 18.9216 23.3479V23.3794C18.9216 24.9432 20.1644 26.1907 21.6636 26.1907C23.1627 26.1907 24.4055 24.9432 24.4055 23.3794V7.53876C24.4055 5.97498 23.1627 4.72461 21.6691 4.72461C20.1756 4.72461 18.9428 5.95704 18.9243 7.50433ZM21.6636 6.19336C22.4571 6.19336 23.0305 6.79945 23.0305 7.53876V23.3795C23.0305 24.1188 22.4571 24.722 21.6636 24.722C20.87 24.722 20.2966 24.1188 20.2966 23.3795V7.53876C20.2966 6.79945 20.87 6.19336 21.6636 6.19336ZM18.9216 9.04767V21.8476C15.2881 21.0423 11.6546 20.2371 8.021 19.4322V12.8199C11.6545 11.5625 15.2883 10.3057 18.9216 9.04767ZM3.46631 13.1498H6.48218C6.57524 13.1498 6.62988 13.2082 6.62988 13.3076V15.4505H3.3186V13.3076C3.3186 13.2082 3.37325 13.1498 3.46631 13.1498ZM3.3186 16.9193H6.62988V19.0621C6.62988 19.1615 6.57524 19.2199 6.48218 19.2199H3.46631C3.37325 19.2199 3.3186 19.1615 3.3186 19.0621V16.9193ZM6.70239 20.6399C7.00219 20.7063 7.30225 20.7714 7.60205 20.8378L10.1802 29.0565H8.20898L5.41064 20.6887H6.48218C6.56 20.6887 6.62747 20.6524 6.70239 20.6399V20.6399Z" fill="#333534"/>
</svg>
