<svg width="36" height="36" viewBox="0 0 36 36" fill="none" xmlns="http://www.w3.org/2000/svg">
<circle cx="18" cy="18" r="18" fill="#F9CB81"/>
<path d="M17.9998 9C21.9764 9 25.1998 12.3165 25.1998 16.408C25.1998 19.5384 23.062 22.9499 18.8417 26.6789C18.607 26.8864 18.3078 27.0003 17.9984 27C17.6891 26.9997 17.3901 26.8853 17.1557 26.6774L16.8766 26.4282C12.8431 22.7964 10.7998 19.4685 10.7998 16.408C10.7998 12.3165 14.0232 9 17.9998 9ZM17.9998 13.5588C17.2654 13.5588 16.561 13.859 16.0417 14.3933C15.5223 14.9276 15.2306 15.6524 15.2306 16.408C15.2306 17.1637 15.5223 17.8884 16.0417 18.4227C16.561 18.9571 17.2654 19.2573 17.9998 19.2573C18.7343 19.2573 19.4386 18.9571 19.9579 18.4227C20.4773 17.8884 20.769 17.1637 20.769 16.408C20.769 15.6524 20.4773 14.9276 19.9579 14.3933C19.4386 13.859 18.7343 13.5588 17.9998 13.5588Z" fill="white"/>
</svg>
