<svg width="36" height="36" viewBox="0 0 36 36" fill="none" xmlns="http://www.w3.org/2000/svg">
<circle cx="18" cy="18" r="18" fill="#F9CB81"/>
<path d="M26.9919 23.1938C27.0294 23.4938 26.9357 23.7375 26.7296 23.9625L24.2002 26.475C24.0878 26.6063 23.9379 26.7188 23.7505 26.7938C23.5631 26.8875 23.3945 26.9438 23.2071 26.9625C23.1884 26.9625 23.1509 26.9625 23.0947 26.9813C23.0385 26.9813 22.9448 27 22.8511 27C22.6076 27 22.2141 26.9625 21.6707 26.8688C21.1274 26.7938 20.4716 26.5875 19.6847 26.25C18.8977 25.9313 18.0171 25.4438 17.0241 24.7875C16.0311 24.1313 14.9818 23.25 13.8576 22.125C12.977 21.2437 12.2276 20.4 11.6467 19.6125C11.0659 18.8063 10.5975 18.075 10.2415 17.3812C9.88549 16.7062 9.62318 16.0875 9.43582 15.525C9.26719 14.9813 9.13603 14.4937 9.07982 14.1C9.02361 13.7062 8.98614 13.3875 9.00487 13.1625C9.02361 12.9375 9.02361 12.8063 9.02361 12.7875C9.04235 12.6 9.09856 12.4313 9.19224 12.2438C9.28592 12.0563 9.3796 11.9063 9.51076 11.7938L12.0402 9.26253C12.2088 9.09378 12.4149 9 12.6585 9C12.8271 9 12.977 9.05628 13.0894 9.15003C13.2206 9.24378 13.333 9.35629 13.408 9.50629L15.4502 13.3875C15.5626 13.5938 15.6001 13.8188 15.5439 14.0625C15.4877 14.3063 15.394 14.5126 15.2254 14.6813L14.2886 15.6188C14.2698 15.6376 14.2324 15.6938 14.2136 15.75C14.1949 15.8063 14.1761 15.8625 14.1761 15.9C14.2324 16.1625 14.3448 16.4813 14.5134 16.8188C14.6633 17.1188 14.9069 17.4938 15.2254 17.9438C15.5439 18.375 15.9936 18.8813 16.5744 19.4625C17.1553 20.0438 17.6611 20.4938 18.0921 20.8313C18.5418 21.15 18.9165 21.3937 19.2163 21.5437C19.5161 21.6937 19.7409 21.7875 19.9095 21.825L20.1531 21.8813C20.1718 21.8813 20.228 21.8625 20.2842 21.8438C20.3405 21.825 20.3779 21.8063 20.4154 21.7688L21.5021 20.6625C21.727 20.4562 21.9893 20.3625 22.3078 20.3625C22.5326 20.3625 22.7013 20.4 22.8137 20.475H22.8324L26.5048 22.65C26.7858 22.725 26.9544 22.9313 26.9919 23.1938Z" fill="white"/>
</svg>
